<svg width="24" height="24" viewBox="0 0 24 24" version="1.1" xmlns="http://www.w3.org/2000/svg" xmlns:xlink="http://www.w3.org/1999/xlink">
  <g id="Canvas" transform="translate(-3858 46)">
    <g id="Print_Bright-Blue">
      <g id="Printer">
        <g id="Vector">
          <use xlink:href="#path0_fill" transform="translate(3860 -38)" fill="#00B0FF"/>
        </g>
        <g id="Vector">
          <use xlink:href="#path1_fill" transform="translate(3863 -45)" fill="#00B0FF"/>
        </g>
        <g id="Vector">
          <use xlink:href="#path2_fill" transform="translate(3874 -33)" fill="#00B0FF"/>
        </g>
      </g>
    </g>
  </g>
  <defs>
    <path id="path0_fill" d="M 20 3C 20 1.346 18.654 0 17 0L 15 0L 15 2L 5 2L 5 0L 3 0C 1.346 0 0 1.346 0 3L 0 12L 3 12L 3 16L 17 16L 17 12L 20 12L 20 3ZM 15 14L 5 14L 5 10L 15 10L 15 14ZM 18 10L 17 10L 17 8L 3 8L 3 10L 2 10L 2 3C 2 2.448 2.449 2 3 2L 3 4L 17 4L 17 2C 17.551 2 18 2.448 18 3L 18 10Z"/>
    <path id="path1_fill" d="M 2 2L 12 2L 12 6L 14 6L 14 0L 0 0L 0 6L 2 6L 2 2Z"/>
    <path id="path2_fill" d="M 1 2C 1.55228 2 2 1.55228 2 1C 2 0.447715 1.55228 0 1 0C 0.447715 0 0 0.447715 0 1C 0 1.55228 0.447715 2 1 2Z"/>
  </defs>
</svg>
