<svg width="24" height="24" viewBox="0 0 24 24" version="1.1" xmlns="http://www.w3.org/2000/svg" xmlns:xlink="http://www.w3.org/1999/xlink">
  <g id="Canvas" transform="translate(-3922 46)">
    <g id="Facebook_Bright-Blue">
      <g id="Vector">
        <use xlink:href="#path0_fill" transform="translate(3924 -44)" fill="#00B0FF"/>
      </g>
    </g>
  </g>
  <defs>
    <path id="path0_fill" d="M 17 2L 17 5L 15 5C 14.4 5 14 5.4 14 6L 14 8L 17 8L 17 11L 14 11L 14 18L 11 18L 11 11L 9 11L 9 8L 11 8L 11 5.5C 11 3.6 12.6 2 14.5 2M 18 0L 2 0C 0.9 0 0 0.9 0 2L 0 18C 0 19.1 0.9 20 2 20L 18 20C 19.1 20 20 19.1 20 18L 20 2C 20 0.9 19.1 0 18 0Z"/>
  </defs>
</svg>
