<svg width="24" height="24" viewBox="0 0 24 24" version="1.1" xmlns="http://www.w3.org/2000/svg" xmlns:xlink="http://www.w3.org/1999/xlink">
  <g id="Canvas" transform="translate(-187 58)">
    <g id="Magnifying-Glass_Medium-Blue">
      <g id="Magnifying-Glass">
        <use xlink:href="#path0_fill" transform="translate(190 -55)" fill="#0288D1"/>
      </g>
    </g>
  </g>
  <defs>
    <path id="path0_fill" d="M 6.5 0C 10.1 0 13 2.9 13 6.5C 13 8.1 12.4 9.6 11.4 10.7L 11.7 11L 12.5 11L 17.5 16L 16 17.5L 11 12.5L 11 11.7L 10.7 11.4C 9.6 12.4 8.1 13 6.5 13C 2.9 13 0 10.1 0 6.5C 0 2.9 2.9 0 6.5 0ZM 6.5 2C 4 2 2 4 2 6.5C 2 9 4 11 6.5 11C 9 11 11 9 11 6.5C 11 4 9 2 6.5 2Z"/>
  </defs>
</svg>
